<?xml version="1.0" encoding="UTF-8"?>
<svg xmlns="http://www.w3.org/2000/svg"
     width="32"
     height="32"
     viewBox="18 12 16 28"
     fill="none">

  <path fill="#234B9B" d="
  M30.9 22.16
  c0.88-1.02 1.25-2.26 1.25-3.44
  c0-0.95-0.26-2.85-1.93-4.16
  c-1.15-0.89-2.16-1.31-4.59-1.31
  H24.4
  c-0.04 0-0.07 0-0.12 0
  h-5.06
  v23.91
  h14.45
  v-4.59
  c0-4.39-1.42-7.34-5.09-8.64
  C29.73 23.45 30.44 22.72 30.9 22.16
  z

  M28.03 21.7
  c-0.66 0.82-1.73 1.58-3.25 1.58
  c-0.01 0-0.02 0-0.03 0
  v1.19
  c4.06 0 5.65 2.7 5.65 7.64
  v3.72
  h-2.61
  v-7.98
  h-3.01
  v7.99
  h-2.3
  V14.44
  l2.37 0
  c0.89 0 2.23 0.2 3.18 1.38
  c0.49 0.6 0.8 1.39 0.9 2.19
  h-4.15
  v1.18
  h4.18
  C28.93 19.95 28.77 20.8 28.03 21.7
  z
"/>

</svg>