<?xml version="1.0" encoding="UTF-8"?>
<svg xmlns="http://www.w3.org/2000/svg"
     width="32"
     height="32"
     viewBox="0 0 3800 3625.24"
     fill="none">

  <style>
    .green { fill:#3DA935; }
    .green-light { fill:#038439; }
    .green-dark { fill:#025E25; }
    .blue { fill:#227FBD; }
    .blue-dark { fill:#0765A3; }
    .orange { fill:#F19102; }
    .orange-dark { fill:#E74E0E; }
    .yellow { fill:#F6BB3C; }
  </style>

  <g>
    <path class="green" d="M506.52 2305.65l0 -1057.15 -506.52 -70.82 0 1024.81 0.15 861.55 2578.64 561.19 0 0 0 -496.78 -506.29 -103.1 0 -400.84 0 -178.1 0 -532.25 0 -446.68 -505.03 -70.63 0 526.63 0 598.2 0 341.28 0 59.56 -57.93 -11.78 -582.25 -118.58 -420.77 -85.78 0 -400.74zm-506.52 758.17l506.4 -357.35 0.12 -0.08 -506.52 357.43z"/>

    <polygon class="green-light" points="927.38,2395.81 506.52,2706.39 927.38,2792.08 1567.47,2922.53 1567.57,2521.61 932.23,2392.25"/>

    <polygon class="green-dark" points="506.52,2706.39 927.38,2395.81 927.38,2391.25 927.38,1307.26 506.61,1248.42 506.61,2305.57"/>

    <polygon class="blue" points="2578.79,3128.47 2578.79,2727.63 2578.79,2028.86 2578.79,1538.28 2555.2,1534.97 2072.5,1467.49 2072.5,1914.17 2072.5,2446.42 2072.5,2624.53 2072.5,3025.36"/>

    <polygon class="blue-dark" points="3083.21,1634.64 3440.88,1339.66 3440.88,2611.15 3739.59,2252.23 3739.59,1093.3 3739.59,626.43 3440.88,861.08 3083.21,1142.03 2925.44,1265.97 2578.79,1538.28 2578.79,1560.1 2578.79,2050.67 2578.79,2749.46 2578.79,3150.28 2578.79,3625.24 2925.44,3208.7 2925.44,2820.05 2925.44,1764.78"/>

    <polygon class="orange" points="506.52,775.68 -0,704.85 -0,1177.69 506.52,1248.5 927.29,1307.34 1567.47,1396.86 2072.5,1467.49 2578.79,1538.28 2578.79,1065.44 2072.5,994.66 1567.47,924.04 927.29,834.52"/>

    <polygon class="blue" points="2925.44,804.1 2925.44,1265.97 3083.21,1142.03 3445.44,857.51 3440.88,856.97 3083.21,820.95"/>

    <polygon class="orange-dark" points="2578.79,1065.44 2578.79,1538.28 2925.44,1265.97 2925.44,804.1"/>

    <polygon class="orange-dark" points="3440.88,424.35 3445.44,857.51 3445.44,857.51 3739.59,626.43 3739.59,210.93 3737.53,210.73"/>

    <path class="yellow" d="M2629.62 635.01l0 -151.04 -414.04 -175.99 363.21 42.63 346.65 29.66 157.77 13.48 357.67 30.6 297.68 -213.53 -2173.43 -210.83 -381.9 175.62 384.24 136.62 168.45 59.89 -168.45 5.12 -640.18 19.45 -240.76 7.3c-228.68,105.15 -454.4,202.33 -686.54,300.85 2578.79,360.59 0,0 2578.79,360.59l0 0 346.65 -261.34 -295.82 -40.76 0 -128.33z"/>
  </g>

</svg>